{
  "accessors": [
    {
      "bufferView": 2,
      "componentType": 5126,
      "count": 121,
      "max": [
        0.8333333730697632,
        1.0,
        0.75
      ],
      "min": [
        -1.0,
        -1.2941175699234009,
        -0.75
      ],
      "type": "VEC3"
    },
    {
      "bufferView": 2,
      "byteOffset": 1452,
      "componentType": 5126,
      "count": 121,
      "max": [
        1.0,
        1.0,
        1.0
      ],
      "min": [
        -1.0,
        -0.0,
        -1.0
      ],
      "type": "VEC3"
    },
    {
      "bufferView": 1,
      "componentType": 5126,
      "count": 121,
      "max": [
        0.6658128499984741,
        0.75
      ],
      "min": [
        0.375,
        0.0
      ],
      "type": "VEC2"
    },
    {
      "bufferView": 0,
      "componentType": 5125,
      "count": 366,
      "type": "SCALAR"
    },
    {
      "bufferView": 2,
      "byteOffset": 2904,
      "componentType": 5126,
      "count": 395,
      "max": [
        1.0,
        1.0,
        1.0
      ],
      "min": [
        -1.0,
        -1.0,
        -1.0
      ],
      "type": "VEC3"
    },
    {
      "bufferView": 2,
      "byteOffset": 7644,
      "componentType": 5126,
      "count": 395,
      "max": [
        1.0,
        1.0,
        1.0
      ],
      "min": [
        -1.0,
        -1.0,
        -1.0
      ],
      "type": "VEC3"
    },
    {
      "bufferView": 1,
      "byteOffset": 968,
      "componentType": 5126,
      "count": 395,
      "max": [
        1.0018939971923828,
        1.100000023841858
      ],
      "min": [
        -0.039772745221853256,
        -0.09999996423721313
      ],
      "type": "VEC2"
    },
    {
      "bufferView": 0,
      "byteOffset": 1464,
      "componentType": 5125,
      "count": 1056,
      "type": "SCALAR"
    },
    {
      "bufferView": 2,
      "byteOffset": 12384,
      "componentType": 5126,
      "count": 662,
      "max": [
        1.0,
        1.0,
        1.100000023841858
      ],
      "min": [
        -1.0,
        -1.2941175699234009,
        -1.100000023841858
      ],
      "type": "VEC3"
    },
    {
      "bufferView": 2,
      "byteOffset": 20328,
      "componentType": 5126,
      "count": 662,
      "max": [
        1.0,
        1.0,
        1.0
      ],
      "min": [
        -1.0,
        -1.0,
        -1.0
      ],
      "type": "VEC3"
    },
    {
      "bufferView": 1,
      "byteOffset": 4128,
      "componentType": 5126,
      "count": 662,
      "max": [
        0.8112823367118835,
        1.0232294797897339
      ],
      "min": [
        0.2297951579093933,
        -0.013039492070674896
      ],
      "type": "VEC2"
    },
    {
      "bufferView": 0,
      "byteOffset": 5688,
      "componentType": 5125,
      "count": 1386,
      "type": "SCALAR"
    },
    {
      "bufferView": 2,
      "byteOffset": 28272,
      "componentType": 5126,
      "count": 629,
      "max": [
        0.8333333730697632,
        0.5152464509010315,
        -0.25
      ],
      "min": [
        -0.8333333730697632,
        -0.17615941166877747,
        -1.8998527526855469
      ],
      "type": "VEC3"
    },
    {
      "bufferView": 2,
      "byteOffset": 35820,
      "componentType": 5126,
      "count": 629,
      "max": [
        1.0,
        0.9852191209793091,
        1.0
      ],
      "min": [
        -1.0,
        -1.0,
        -1.0
      ],
      "type": "VEC3"
    },
    {
      "bufferView": 1,
      "byteOffset": 9424,
      "componentType": 5126,
      "count": 629,
      "max": [
        0.8124397993087769,
        0.8409096002578735
      ],
      "min": [
        0.18774959444999695,
        0.15909147262573242
      ],
      "type": "VEC2"
    },
    {
      "bufferView": 0,
      "byteOffset": 11232,
      "componentType": 5125,
      "count": 1128,
      "type": "SCALAR"
    },
    {
      "bufferView": 2,
      "byteOffset": 43368,
      "componentType": 5126,
      "count": 1416,
      "max": [
        1.0,
        0.9229888319969177,
        0.10000002384185791
      ],
      "min": [
        -1.0,
        5.960464477539063e-08,
        -2.0999999046325684
      ],
      "type": "VEC3"
    },
    {
      "bufferView": 2,
      "byteOffset": 60360,
      "componentType": 5126,
      "count": 1416,
      "max": [
        1.0,
        0.9999986886978149,
        0.9999968409538269
      ],
      "min": [
        -1.0,
        -1.0,
        -0.9999968409538269
      ],
      "type": "VEC3"
    },
    {
      "bufferView": 1,
      "byteOffset": 14456,
      "componentType": 5126,
      "count": 1416,
      "max": [
        0.8314666748046875,
        1.0000004768371582
      ],
      "min": [
        0.16853392124176025,
        5.364418029785156e-07
      ],
      "type": "VEC2"
    },
    {
      "bufferView": 0,
      "byteOffset": 15744,
      "componentType": 5125,
      "count": 2442,
      "type": "SCALAR"
    },
    {
      "bufferView": 2,
      "byteOffset": 77352,
      "componentType": 5126,
      "count": 459,
      "max": [
        1.0,
        0.8229888081550598,
        -0.0
      ],
      "min": [
        -1.0,
        5.960464477539063e-08,
        -1.9999998807907104
      ],
      "type": "VEC3"
    },
    {
      "bufferView": 2,
      "byteOffset": 82860,
      "componentType": 5126,
      "count": 459,
      "max": [
        1.0,
        1.0,
        1.0
      ],
      "min": [
        0.0,
        -1.0,
        -1.0
      ],
      "type": "VEC3"
    },
    {
      "bufferView": 1,
      "byteOffset": 25784,
      "componentType": 5126,
      "count": 459,
      "max": [
        1.0620075464248657,
        0.9545459151268005
      ],
      "min": [
        -0.08109841495752335,
        0.045455098152160645
      ],
      "type": "VEC2"
    },
    {
      "bufferView": 0,
      "byteOffset": 25512,
      "componentType": 5125,
      "count": 1098,
      "type": "SCALAR"
    },
    {
      "bufferView": 2,
      "byteOffset": 88368,
      "componentType": 5126,
      "count": 688,
      "max": [
        0.7200435996055603,
        5.960464477539063e-08,
        -1.8333333730697632
      ],
      "min": [
        -0.7222222089767456,
        -0.22793620824813843,
        -1.9169479608535767
      ],
      "type": "VEC3"
    },
    {
      "bufferView": 2,
      "byteOffset": 96624,
      "componentType": 5126,
      "count": 688,
      "max": [
        1.0,
        0.003898880211636424,
        1.0
      ],
      "min": [
        -1.0,
        -1.0,
        -1.0
      ],
      "type": "VEC3"
    },
    {
      "bufferView": 1,
      "byteOffset": 29456,
      "componentType": 5126,
      "count": 688,
      "max": [
        0.8331060409545898,
        0.6070289015769958
      ],
      "min": [
        0.16610601544380188,
        0.4507623016834259
      ],
      "type": "VEC2"
    },
    {
      "bufferView": 0,
      "byteOffset": 29904,
      "componentType": 5125,
      "count": 1416,
      "type": "SCALAR"
    },
    {
      "bufferView": 2,
      "byteOffset": 104880,
      "componentType": 5126,
      "count": 8208,
      "max": [
        0.7946643233299255,
        0.5882353186607361,
        0.21703946590423584
      ],
      "min": [
        -0.774013876914978,
        0.4117647111415863,
        -1.1061577796936035
      ],
      "type": "VEC3"
    },
    {
      "bufferView": 2,
      "byteOffset": 203376,
      "componentType": 5126,
      "count": 8208,
      "max": [
        1.0,
        1.0,
        1.0
      ],
      "min": [
        -1.0,
        -1.0,
        -1.0
      ],
      "type": "VEC3"
    },
    {
      "bufferView": 1,
      "byteOffset": 34960,
      "componentType": 5126,
      "count": 8208,
      "max": [
        0.7968406677246094,
        0.828750491142273
      ],
      "min": [
        0.3791593313217163,
        0.13124750554561615
      ],
      "type": "VEC2"
    },
    {
      "bufferView": 0,
      "byteOffset": 35568,
      "componentType": 5125,
      "count": 12636,
      "type": "SCALAR"
    },
    {
      "bufferView": 2,
      "byteOffset": 301872,
      "componentType": 5126,
      "count": 434,
      "max": [
        6.630373954772949,
        4.545544147491455,
        4.8617143630981445
      ],
      "min": [
        -6.630374908447266,
        0.2745429277420044,
        3.552969455718994
      ],
      "type": "VEC3"
    },
    {
      "bufferView": 2,
      "byteOffset": 307080,
      "componentType": 5126,
      "count": 434,
      "max": [
        1.0,
        1.0,
        1.0
      ],
      "min": [
        -1.0,
        -1.0,
        -1.0
      ],
      "type": "VEC3"
    },
    {
      "bufferView": 1,
      "byteOffset": 100624,
      "componentType": 5126,
      "count": 434,
      "max": [
        0.8336305618286133,
        0.7082918286323547
      ],
      "min": [
        0.16663050651550293,
        0.00854581594467163
      ],
      "type": "VEC2"
    },
    {
      "bufferView": 0,
      "byteOffset": 86112,
      "componentType": 5125,
      "count": 1032,
      "type": "SCALAR"
    },
    {
      "bufferView": 2,
      "byteOffset": 312288,
      "componentType": 5126,
      "count": 120,
      "max": [
        0.24099892377853394,
        2.327437400817871,
        3.996474027633667
      ],
      "min": [
        -0.24099892377853394,
        1.5793657302856445,
        3.552969455718994
      ],
      "type": "VEC3"
    },
    {
      "bufferView": 2,
      "byteOffset": 313728,
      "componentType": 5126,
      "count": 120,
      "max": [
        0.9951847791671753,
        1.0,
        1.522686154942221e-08
      ],
      "min": [
        -0.9951847791671753,
        -0.9951844811439514,
        -1.6749591935649732e-08
      ],
      "type": "VEC3"
    },
    {
      "bufferView": 1,
      "byteOffset": 104096,
      "componentType": 5126,
      "count": 120,
      "max": [
        0.5380288362503052,
        0.5375593304634094
      ],
      "min": [
        0.4619711935520172,
        0.3756352365016937
      ],
      "type": "VEC2"
    },
    {
      "bufferView": 0,
      "byteOffset": 90240,
      "componentType": 5125,
      "count": 180,
      "type": "SCALAR"
    },
    {
      "bufferView": 2,
      "byteOffset": 315168,
      "componentType": 5126,
      "count": 854,
      "max": [
        1.2423081398010254,
        0.20505456626415253,
        5.932880401611328
      ],
      "min": [
        -1.2576918601989746,
        -0.2949454188346863,
        1.5996239185333252
      ],
      "type": "VEC3"
    },
    {
      "bufferView": 2,
      "byteOffset": 325416,
      "componentType": 5126,
      "count": 854,
      "max": [
        1.0,
        0.9999917149543762,
        1.0
      ],
      "min": [
        -1.0,
        -0.9999917149543762,
        -1.0
      ],
      "type": "VEC3"
    },
    {
      "bufferView": 1,
      "byteOffset": 105056,
      "componentType": 5126,
      "count": 854,
      "max": [
        0.8011651039123535,
        0.41311097145080566
      ],
      "min": [
        0.7131529450416565,
        0.32509875297546387
      ],
      "type": "VEC2"
    },
    {
      "bufferView": 0,
      "byteOffset": 90960,
      "componentType": 5125,
      "count": 2094,
      "type": "SCALAR"
    },
    {
      "bufferView": 2,
      "byteOffset": 335664,
      "componentType": 5126,
      "count": 768,
      "max": [
        1.0000040531158447,
        -4.862357139587402,
        1.0000033378601074
      ],
      "min": [
        -1.0,
        -75.52259826660156,
        -0.9999997019767761
      ],
      "type": "VEC3"
    },
    {
      "bufferView": 2,
      "byteOffset": 344880,
      "componentType": 5126,
      "count": 768,
      "max": [
        0.9951848387718201,
        1.0,
        0.9951848387718201
      ],
      "min": [
        -0.9951848387718201,
        -1.0,
        -0.9951848387718201
      ],
      "type": "VEC3"
    },
    {
      "bufferView": 1,
      "byteOffset": 111888,
      "componentType": 5126,
      "count": 768,
      "max": [
        1.0,
        1.0
      ],
      "min": [
        0.0,
        0.01000000536441803
      ],
      "type": "VEC2"
    },
    {
      "bufferView": 0,
      "byteOffset": 99336,
      "componentType": 5125,
      "count": 1488,
      "type": "SCALAR"
    }
  ],
  "asset": {
    "extras": {
      "author": "miccoro.virtual (https://sketchfab.com/miccoro.virtual)",
      "license": "CC-BY-4.0 (http://creativecommons.org/licenses/by/4.0/)",
      "source": "https://sketchfab.com/3d-models/baule-tesoro-2b2a4a471499481fa3a58028c1dec4df",
      "title": "Baule_Tesoro"
    },
    "generator": "Sketchfab-12.67.0",
    "version": "2.0"
  },
  "bufferViews": [
    {
      "buffer": 0,
      "byteLength": 105288,
      "name": "floatBufferViews",
      "target": 34963
    },
    {
      "buffer": 0,
      "byteLength": 118032,
      "byteOffset": 105288,
      "byteStride": 8,
      "name": "floatBufferViews",
      "target": 34962
    },
    {
      "buffer": 0,
      "byteLength": 354096,
      "byteOffset": 223320,
      "byteStride": 12,
      "name": "floatBufferViews",
      "target": 34962
    }
  ],
  "buffers": [
    {
      "byteLength": 577416,
      "uri": "scene.bin"
    }
  ],
  "images": [
    {
      "uri": "textures/PannoVerde_baseColor.jpeg"
    },
    {
      "uri": "textures/Cassa_baseColor.jpeg"
    },
    {
      "uri": "textures/Fasce_baseColor.jpeg"
    },
    {
      "uri": "textures/ganci_baseColor.jpeg"
    },
    {
      "uri": "textures/material_baseColor.jpeg"
    }
  ],
  "materials": [
    {
      "doubleSided": true,
      "name": "PannoVerde",
      "pbrMetallicRoughness": {
        "baseColorTexture": {
          "index": 0
        },
        "metallicFactor": 0.0
      }
    },
    {
      "doubleSided": true,
      "name": "Cassa",
      "pbrMetallicRoughness": {
        "baseColorTexture": {
          "index": 1
        },
        "metallicFactor": 0.0
      }
    },
    {
      "doubleSided": true,
      "name": "Fasce",
      "pbrMetallicRoughness": {
        "baseColorTexture": {
          "index": 2
        },
        "metallicFactor": 0.0
      }
    },
    {
      "doubleSided": true,
      "name": "ganci",
      "pbrMetallicRoughness": {
        "baseColorTexture": {
          "index": 3
        },
        "metallicFactor": 0.0,
        "roughnessFactor": 0.973684
      }
    },
    {
      "doubleSided": true,
      "name": "material",
      "pbrMetallicRoughness": {
        "baseColorTexture": {
          "index": 4
        },
        "metallicFactor": 0.1,
        "roughnessFactor": 0.0273973
      }
    },
    {
      "doubleSided": true,
      "name": "nero",
      "pbrMetallicRoughness": {
        "baseColorFactor": [
          0.0324403,
          0.0324403,
          0.0324403,
          1.0
        ],
        "metallicFactor": 0.0,
        "roughnessFactor": 0.5
      }
    }
  ],
  "meshes": [
    {
      "name": "Object_0",
      "primitives": [
        {
          "attributes": {
            "NORMAL": 1,
            "POSITION": 0,
            "TEXCOORD_0": 2
          },
          "indices": 3,
          "material": 0,
          "mode": 4
        }
      ]
    },
    {
      "name": "Object_1",
      "primitives": [
        {
          "attributes": {
            "NORMAL": 5,
            "POSITION": 4,
            "TEXCOORD_0": 6
          },
          "indices": 7,
          "material": 1,
          "mode": 4
        }
      ]
    },
    {
      "name": "Object_2",
      "primitives": [
        {
          "attributes": {
            "NORMAL": 9,
            "POSITION": 8,
            "TEXCOORD_0": 10
          },
          "indices": 11,
          "material": 2,
          "mode": 4
        }
      ]
    },
    {
      "name": "Object_3",
      "primitives": [
        {
          "attributes": {
            "NORMAL": 13,
            "POSITION": 12,
            "TEXCOORD_0": 14
          },
          "indices": 15,
          "material": 0,
          "mode": 4
        }
      ]
    },
    {
      "name": "Object_4",
      "primitives": [
        {
          "attributes": {
            "NORMAL": 17,
            "POSITION": 16,
            "TEXCOORD_0": 18
          },
          "indices": 19,
          "material": 2,
          "mode": 4
        }
      ]
    },
    {
      "name": "Object_5",
      "primitives": [
        {
          "attributes": {
            "NORMAL": 21,
            "POSITION": 20,
            "TEXCOORD_0": 22
          },
          "indices": 23,
          "material": 1,
          "mode": 4
        }
      ]
    },
    {
      "name": "Object_6",
      "primitives": [
        {
          "attributes": {
            "NORMAL": 25,
            "POSITION": 24,
            "TEXCOORD_0": 26
          },
          "indices": 27,
          "material": 3,
          "mode": 4
        }
      ]
    },
    {
      "name": "Object_7",
      "primitives": [
        {
          "attributes": {
            "NORMAL": 29,
            "POSITION": 28,
            "TEXCOORD_0": 30
          },
          "indices": 31,
          "material": 4,
          "mode": 4
        }
      ]
    },
    {
      "name": "Object_8",
      "primitives": [
        {
          "attributes": {
            "NORMAL": 33,
            "POSITION": 32,
            "TEXCOORD_0": 34
          },
          "indices": 35,
          "material": 3,
          "mode": 4
        }
      ]
    },
    {
      "name": "Object_9",
      "primitives": [
        {
          "attributes": {
            "NORMAL": 37,
            "POSITION": 36,
            "TEXCOORD_0": 38
          },
          "indices": 39,
          "material": 5,
          "mode": 4
        }
      ]
    },
    {
      "name": "Object_10",
      "primitives": [
        {
          "attributes": {
            "NORMAL": 41,
            "POSITION": 40,
            "TEXCOORD_0": 42
          },
          "indices": 43,
          "material": 3,
          "mode": 4
        }
      ]
    },
    {
      "name": "Object_11",
      "primitives": [
        {
          "attributes": {
            "NORMAL": 45,
            "POSITION": 44,
            "TEXCOORD_0": 46
          },
          "indices": 47,
          "material": 3,
          "mode": 4
        }
      ]
    }
  ],
  "nodes": [
    {
      "children": [
        1
      ],
      "matrix": [
        1.0,
        0.0,
        0.0,
        0.0,
        0.0,
        2.220446049250313e-16,
        -1.0,
        0.0,
        0.0,
        1.0,
        2.220446049250313e-16,
        0.0,
        0.0,
        -0.2356863766908645,
        -0.21742342412471777,
        1.0
      ],
      "name": "Sketchfab_model"
    },
    {
      "children": [
        2
      ],
      "name": "root"
    },
    {
      "children": [
        3,
        7,
        12,
        14,
        17,
        19
      ],
      "matrix": [
        1.0,
        0.0,
        0.0,
        0.0,
        0.0,
        2.220446049250313e-16,
        1.0,
        0.0,
        0.0,
        -1.0,
        2.220446049250313e-16,
        0.0,
        0.0,
        0.0,
        0.0,
        1.0
      ],
      "name": "GLTF_SceneRootNode"
    },
    {
      "children": [
        4,
        5,
        6
      ],
      "matrix": [
        3.0,
        0.0,
        0.0,
        0.0,
        0.0,
        1.7000000476837158,
        0.0,
        0.0,
        0.0,
        0.0,
        2.0,
        0.0,
        0.0,
        0.0,
        0.0,
        1.0
      ],
      "name": "Cassa_0"
    },
    {
      "mesh": 0,
      "name": "Object_4"
    },
    {
      "mesh": 1,
      "name": "Object_5"
    },
    {
      "mesh": 2,
      "name": "Object_6"
    },
    {
      "children": [
        8,
        9,
        10,
        11
      ],
      "matrix": [
        3.0,
        0.0,
        0.0,
        0.0,
        0.0,
        1.3544429267626663,
        1.0273677629102533,
        0.0,
        0.0,
        -1.2086679224627817,
        1.5934622220841959,
        0.0,
        0.0,
        1.8263047933578491,
        2.003153085708618,
        1.0
      ],
      "name": "Coperchio_3"
    },
    {
      "mesh": 3,
      "name": "Object_8"
    },
    {
      "mesh": 4,
      "name": "Object_9"
    },
    {
      "mesh": 5,
      "name": "Object_10"
    },
    {
      "mesh": 6,
      "name": "Object_11"
    },
    {
      "children": [
        13
      ],
      "matrix": [
        3.0,
        0.0,
        0.0,
        0.0,
        0.0,
        1.7000000476837158,
        0.0,
        0.0,
        0.0,
        0.0,
        2.0,
        0.0,
        -0.05441964790225029,
        0.0,
        0.9260543584823608,
        1.0
      ],
      "name": "Lingotti_4"
    },
    {
      "mesh": 7,
      "name": "Object_13"
    },
    {
      "children": [
        15,
        16
      ],
      "matrix": [
        0.33934736251831055,
        0.0,
        0.0,
        0.0,
        0.0,
        0.33934736251831055,
        0.0,
        0.0,
        0.0,
        0.0,
        0.33934736251831055,
        0.0,
        0.0,
        0.17921960353851318,
        -3.2748100757598877,
        1.0
      ],
      "name": "Serratura_5"
    },
    {
      "mesh": 8,
      "name": "Object_15"
    },
    {
      "mesh": 9,
      "name": "Object_16"
    },
    {
      "children": [
        18
      ],
      "matrix": [
        0.12292563730187986,
        -0.17079089949454687,
        -0.0006033822286338184,
        0.0,
        0.17076172151099253,
        0.12291709248553023,
        -0.003525701043680075,
        0.0,
        0.0032140139093502903,
        0.0015699524647854884,
        0.21039916068963405,
        0.0,
        -0.027650833129882813,
        0.8824406862258911,
        -3.08689284324646,
        1.0
      ],
      "name": "Chiave_6"
    },
    {
      "mesh": 10,
      "name": "Object_18"
    },
    {
      "children": [
        20
      ],
      "matrix": [
        -2.4766810824417007e-09,
        2.4766811562525488e-09,
        -0.08310362696647637,
        0.0,
        0.08310362696647637,
        -2.4766810824417007e-09,
        -2.4766811562525488e-09,
        0.0,
        -2.4766811562525488e-09,
        -0.08310362696647637,
        -2.4766810824417007e-09,
        0.0,
        3.338014602661133,
        1.7626899480819702,
        2.2468292713165283,
        1.0
      ],
      "name": "Cerniere_7"
    },
    {
      "mesh": 11,
      "name": "Object_20"
    }
  ],
  "samplers": [
    {
      "magFilter": 9729,
      "minFilter": 9987,
      "wrapS": 10497,
      "wrapT": 10497
    }
  ],
  "scene": 0,
  "scenes": [
    {
      "name": "Sketchfab_Scene",
      "nodes": [
        0
      ]
    }
  ],
  "textures": [
    {
      "sampler": 0,
      "source": 0
    },
    {
      "sampler": 0,
      "source": 1
    },
    {
      "sampler": 0,
      "source": 2
    },
    {
      "sampler": 0,
      "source": 3
    },
    {
      "sampler": 0,
      "source": 4
    }
  ]
}
