{
    "asset" : {
        "generator" : "Khronos glTF Blender I/O v1.2.75",
        "version" : "2.0"
    },
    "scene" : 0,
    "scenes" : [
        {
            "name" : "Scene",
            "nodes" : [
                4
            ]
        }
    ],
    "nodes" : [
        {
            "mesh" : 0,
            "name" : "COFRE_cofre_0"
        },
        {
            "children" : [
                0
            ],
            "name" : "COFRE",
            "rotation" : [
                -0.7071068286895752,
                0,
                0,
                0.7071067094802856
            ],
            "scale" : [
                98.7887954711914,
                98.7887954711914,
                98.78878784179688
            ]
        },
        {
            "children" : [
                1
            ],
            "name" : "RootNode"
        },
        {
            "children" : [
                2
            ],
            "name" : "c4d8e5fb76894d3bb7dfc456789283f7.fbx",
            "rotation" : [
                0.7071068286895752,
                0,
                0,
                0.7071068286895752
            ]
        },
        {
            "children" : [
                3
            ],
            "name" : "Sketchfab_model",
            "rotation" : [
                -0.7071068286895752,
                0,
                0,
                0.7071068286895752
            ]
        }
    ],
    "materials" : [
        {
            "doubleSided" : true,
            "emissiveFactor" : [
                0,
                0,
                0
            ],
            "name" : "cofre",
            "pbrMetallicRoughness" : {
                "baseColorTexture" : {
                    "index" : 0,
                    "texCoord" : 0
                },
                "metallicRoughnessTexture" : {
                    "index" : 1,
                    "texCoord" : 0
                }
            }
        }
    ],
    "meshes" : [
        {
            "name" : "COFRE_cofre_0",
            "primitives" : [
                {
                    "attributes" : {
                        "POSITION" : 0,
                        "NORMAL" : 1,
                        "TEXCOORD_0" : 2
                    },
                    "indices" : 3,
                    "material" : 0
                }
            ]
        }
    ],
    "textures" : [
        {
            "source" : 0
        },
        {
            "source" : 1
        }
    ],
    "images" : [
        {
            "bufferView" : 4,
            "mimeType" : "image/png",
            "name" : "cofre_baseColor"
        },
        {
            "bufferView" : 5,
            "mimeType" : "image/png",
            "name" : "cofre_metallicRoughness"
        }
    ],
    "accessors" : [
        {
            "bufferView" : 0,
            "componentType" : 5126,
            "count" : 12110,
            "max" : [
                1.8759520053863525,
                2.988942861557007,
                3.9501888751983643
            ],
            "min" : [
                -1.8759520053863525,
                -1.2496798038482666,
                -0.07332334667444229
            ],
            "type" : "VEC3"
        },
        {
            "bufferView" : 1,
            "componentType" : 5126,
            "count" : 12110,
            "type" : "VEC3"
        },
        {
            "bufferView" : 2,
            "componentType" : 5126,
            "count" : 12110,
            "type" : "VEC2"
        },
        {
            "bufferView" : 3,
            "componentType" : 5123,
            "count" : 13827,
            "type" : "SCALAR"
        }
    ],
    "bufferViews" : [
        {
            "buffer" : 0,
            "byteLength" : 145320,
            "byteOffset" : 0
        },
        {
            "buffer" : 0,
            "byteLength" : 145320,
            "byteOffset" : 145320
        },
        {
            "buffer" : 0,
            "byteLength" : 96880,
            "byteOffset" : 290640
        },
        {
            "buffer" : 0,
            "byteLength" : 27654,
            "byteOffset" : 387520
        },
        {
            "buffer" : 0,
            "byteLength" : 6889,
            "byteOffset" : 415176
        },
        {
            "buffer" : 0,
            "byteLength" : 387,
            "byteOffset" : 422068
        }
    ],
    "buffers" : [
        {
            "byteLength" : 422456,
            "uri" : "data:application/octet-stream;base64,"
        }
    ]
}
