{
  "accessors": [
    {
      "bufferView": 2,
      "componentType": 5126,
      "count": 65532,
      "max": [
        479.0953063964844,
        699.3594970703125,
        41.909996032714844
      ],
      "min": [
        -479.0953063964844,
        1.613729546079412e-05,
        -41.910003662109375
      ],
      "type": "VEC3"
    },
    {
      "bufferView": 2,
      "byteOffset": 786384,
      "componentType": 5126,
      "count": 65532,
      "max": [
        1.0,
        1.0,
        1.0
      ],
      "min": [
        -1.0,
        -1.0,
        -1.0
      ],
      "type": "VEC3"
    },
    {
      "bufferView": 1,
      "componentType": 5126,
      "count": 65532,
      "max": [
        2.8954765796661377,
        -0.5323793888092041
      ],
      "min": [
        -1.8954765796661377,
        -4.029176712036133
      ],
      "type": "VEC2"
    },
    {
      "bufferView": 1,
      "byteOffset": 524256,
      "componentType": 5126,
      "count": 65532,
      "max": [
        1.2474734783172607,
        1.4642236232757568
      ],
      "min": [
        -0.18099646270275116,
        -0.1412336826324463
      ],
      "type": "VEC2"
    },
    {
      "bufferView": 0,
      "componentType": 5125,
      "count": 169173,
      "type": "SCALAR"
    },
    {
      "bufferView": 2,
      "byteOffset": 1572768,
      "componentType": 5126,
      "count": 65532,
      "max": [
        502.9200134277344,
        1103.950927734375,
        39.959999084472656
      ],
      "min": [
        -502.9200134277344,
        2.5399999618530273,
        -39.959999084472656
      ],
      "type": "VEC3"
    },
    {
      "bufferView": 2,
      "byteOffset": 2359152,
      "componentType": 5126,
      "count": 65532,
      "max": [
        1.0,
        1.0,
        1.0
      ],
      "min": [
        -1.0,
        -1.0,
        -1.0
      ],
      "type": "VEC3"
    },
    {
      "bufferView": 1,
      "byteOffset": 1048512,
      "componentType": 5126,
      "count": 65532,
      "max": [
        3.0146000385284424,
        1.4905779361724854
      ],
      "min": [
        -2.0146000385284424,
        -4.016476631164551
      ],
      "type": "VEC2"
    },
    {
      "bufferView": 1,
      "byteOffset": 1572768,
      "componentType": 5126,
      "count": 65532,
      "max": [
        1.2474734783172607,
        1.4642236232757568
      ],
      "min": [
        -0.18099646270275116,
        -0.1412336826324463
      ],
      "type": "VEC2"
    },
    {
      "bufferView": 0,
      "byteOffset": 676692,
      "componentType": 5125,
      "count": 163833,
      "type": "SCALAR"
    },
    {
      "bufferView": 2,
      "byteOffset": 3145536,
      "componentType": 5126,
      "count": 16236,
      "max": [
        9.22805118560791,
        642.1148681640625,
        -32.37311935424805
      ],
      "min": [
        -24.069711685180664,
        632.8703002929688,
        -36.20688247680664
      ],
      "type": "VEC3"
    },
    {
      "bufferView": 2,
      "byteOffset": 3340368,
      "componentType": 5126,
      "count": 16236,
      "max": [
        0.9986071586608887,
        0.9994471669197083,
        0.9992398619651794
      ],
      "min": [
        -0.9986069798469543,
        -0.9994961023330688,
        -0.9992374777793884
      ],
      "type": "VEC3"
    },
    {
      "bufferView": 1,
      "byteOffset": 2097024,
      "componentType": 5126,
      "count": 16236,
      "max": [
        0.5461402535438538,
        -0.8186025619506836
      ],
      "min": [
        0.3796514570713043,
        -0.8648252487182617
      ],
      "type": "VEC2"
    },
    {
      "bufferView": 1,
      "byteOffset": 2226912,
      "componentType": 5126,
      "count": 16236,
      "max": [
        1.2474734783172607,
        1.4642236232757568
      ],
      "min": [
        -0.18099646270275116,
        -0.1412336826324463
      ],
      "type": "VEC2"
    },
    {
      "bufferView": 0,
      "byteOffset": 1332024,
      "componentType": 5125,
      "count": 40590,
      "type": "SCALAR"
    },
    {
      "bufferView": 2,
      "byteOffset": 3535200,
      "componentType": 5126,
      "count": 24,
      "max": [
        502.9200134277344,
        1103.955322265625,
        30.657745361328125
      ],
      "min": [
        -502.9200134277344,
        707.7153930664063,
        28.117746353149414
      ],
      "type": "VEC3"
    },
    {
      "bufferView": 2,
      "byteOffset": 3535488,
      "componentType": 5126,
      "count": 24,
      "max": [
        1.0,
        1.0,
        1.0
      ],
      "min": [
        -1.0,
        -1.0,
        -1.0
      ],
      "type": "VEC3"
    },
    {
      "bufferView": 1,
      "byteOffset": 2356800,
      "componentType": 5126,
      "count": 24,
      "max": [
        3.0146000385284424,
        1.4905999898910522
      ],
      "min": [
        -2.0146000385284424,
        -0.4905998706817627
      ],
      "type": "VEC2"
    },
    {
      "bufferView": 1,
      "byteOffset": 2356992,
      "componentType": 5126,
      "count": 24,
      "max": [
        1.0,
        1.0
      ],
      "min": [
        0.0,
        0.0
      ],
      "type": "VEC2"
    },
    {
      "bufferView": 0,
      "byteOffset": 1494384,
      "componentType": 5125,
      "count": 36,
      "type": "SCALAR"
    }
  ],
  "asset": {
    "extras": {
      "author": "Cregan Max (https://sketchfab.com/creativeganad)",
      "license": "CC-BY-4.0 (http://creativecommons.org/licenses/by/4.0/)",
      "source": "https://sketchfab.com/3d-models/33x13-billboard-7012770bacdd4df991958eb33a8e24d4",
      "title": "33'x13' Billboard"
    },
    "generator": "Sketchfab-15.36.0",
    "version": "2.0"
  },
  "bufferViews": [
    {
      "buffer": 0,
      "byteLength": 1494528,
      "name": "floatBufferViews",
      "target": 34963
    },
    {
      "buffer": 0,
      "byteLength": 2357184,
      "byteOffset": 1494528,
      "byteStride": 8,
      "name": "floatBufferViews",
      "target": 34962
    },
    {
      "buffer": 0,
      "byteLength": 3535776,
      "byteOffset": 3851712,
      "byteStride": 12,
      "name": "floatBufferViews",
      "target": 34962
    }
  ],
  "buffers": [
    {
      "byteLength": 7387488,
      "uri": "scene.bin"
    }
  ],
  "images": [
    {
      "uri": "textures/33_x_13_emissive.jpeg"
    }
  ],
  "materials": [
    {
      "doubleSided": true,
      "emissiveFactor": [
        0.27,
        0.27,
        0.27
      ],
      "name": "Mat.14",
      "pbrMetallicRoughness": {
        "metallicFactor": 0.0,
        "roughnessFactor": 0.6915578076488026
      }
    },
    {
      "doubleSided": true,
      "emissiveFactor": [
        1.0,
        1.0,
        1.0
      ],
      "emissiveTexture": {
        "index": 0
      },
      "name": "33_x_13",
      "pbrMetallicRoughness": {
        "baseColorFactor": [
          0.0,
          0.0,
          0.0,
          1.0
        ],
        "metallicFactor": 0.0,
        "roughnessFactor": 0.6
      }
    }
  ],
  "meshes": [
    {
      "name": "Billboard_33__x_13__Mat.14_1",
      "primitives": [
        {
          "attributes": {
            "NORMAL": 1,
            "POSITION": 0,
            "TEXCOORD_0": 2,
            "TEXCOORD_1": 3
          },
          "indices": 4,
          "material": 0,
          "mode": 4
        }
      ]
    },
    {
      "name": "Billboard_33__x_13__Mat.14_1",
      "primitives": [
        {
          "attributes": {
            "NORMAL": 6,
            "POSITION": 5,
            "TEXCOORD_0": 7,
            "TEXCOORD_1": 8
          },
          "indices": 9,
          "material": 0,
          "mode": 4
        }
      ]
    },
    {
      "name": "Billboard_33__x_13__Mat.14_1",
      "primitives": [
        {
          "attributes": {
            "NORMAL": 11,
            "POSITION": 10,
            "TEXCOORD_0": 12,
            "TEXCOORD_1": 13
          },
          "indices": 14,
          "material": 0,
          "mode": 4
        }
      ]
    },
    {
      "name": "Billboard_33__x_13__33' x 13'_0",
      "primitives": [
        {
          "attributes": {
            "NORMAL": 16,
            "POSITION": 15,
            "TEXCOORD_0": 17,
            "TEXCOORD_1": 18
          },
          "indices": 19,
          "material": 1,
          "mode": 4
        }
      ]
    }
  ],
  "nodes": [
    {
      "children": [
        1
      ],
      "matrix": [
        1.0,
        0.0,
        0.0,
        0.0,
        0.0,
        2.220446049250313e-16,
        -1.0,
        0.0,
        0.0,
        1.0,
        2.220446049250313e-16,
        0.0,
        0.0,
        0.0,
        0.0,
        1.0
      ],
      "name": "Sketchfab_model"
    },
    {
      "children": [
        2
      ],
      "matrix": [
        0.009999999776482582,
        0.0,
        0.0,
        0.0,
        0.0,
        0.0,
        0.009999999776482582,
        0.0,
        0.0,
        -0.009999999776482582,
        0.0,
        0.0,
        0.0,
        0.0,
        0.0,
        1.0
      ],
      "name": "40013b8fd6e64ca2b1ae379dd082a97e.fbx"
    },
    {
      "children": [
        3
      ],
      "name": "RootNode"
    },
    {
      "children": [
        4,
        5,
        6,
        7
      ],
      "name": "Billboard_33__x_13_"
    },
    {
      "mesh": 0,
      "name": "Billboard_33__x_13__Mat.14_1"
    },
    {
      "mesh": 1,
      "name": "Billboard_33__x_13__Mat.14_1"
    },
    {
      "mesh": 2,
      "name": "Billboard_33__x_13__Mat.14_1"
    },
    {
      "mesh": 3,
      "name": "Billboard_33__x_13__33' x 13'_0"
    }
  ],
  "samplers": [
    {
      "magFilter": 9729,
      "minFilter": 9987,
      "wrapS": 33071,
      "wrapT": 33071
    }
  ],
  "scene": 0,
  "scenes": [
    {
      "name": "Sketchfab_Scene",
      "nodes": [
        0
      ]
    }
  ],
  "textures": [
    {
      "sampler": 0,
      "source": 0
    }
  ]
}
