{
    "asset" : {
        "generator" : "Khronos glTF Blender I/O v1.2.75",
        "version" : "2.0"
    },
    "scene" : 0,
    "scenes" : [
        {
            "name" : "Scene",
            "nodes" : [
                4
            ]
        }
    ],
    "nodes" : [
        {
            "mesh" : 0,
            "name" : "Object_4"
        },
        {
            "children" : [
                0
            ],
            "name" : "Curve_2",
            "rotation" : [
                0,
                0.7071062922477722,
                -0.7071072459220886,
                3.793072167468381e-08
            ],
            "scale" : [
                3.6641335487365723,
                3.6641335487365723,
                3.6641335487365723
            ],
            "translation" : [
                0.20285344123840332,
                0,
                0.022118791937828064
            ]
        },
        {
            "children" : [
                1
            ],
            "name" : "GLTF_SceneRootNode",
            "rotation" : [
                0.7071068286895752,
                0,
                0,
                0.7071068286895752
            ]
        },
        {
            "children" : [
                2
            ],
            "name" : "root"
        },
        {
            "children" : [
                3
            ],
            "name" : "Sketchfab_model",
            "rotation" : [
                -0.7071068286895752,
                0,
                0,
                0.7071068286895752
            ]
        }
    ],
    "materials" : [
        {
            "doubleSided" : true,
            "emissiveFactor" : [
                0,
                0,
                0
            ],
            "name" : "Material.001",
            "pbrMetallicRoughness" : {
                "baseColorFactor" : [
                    0.800000011920929,
                    0,
                    0.01044469978660345,
                    1
                ],
                "metallicFactor" : 0,
                "roughnessFactor" : 0.4000000059604645
            }
        }
    ],
    "meshes" : [
        {
            "name" : "Object_0",
            "primitives" : [
                {
                    "attributes" : {
                        "POSITION" : 0,
                        "NORMAL" : 1,
                        "TEXCOORD_0" : 2
                    },
                    "indices" : 3,
                    "material" : 0
                }
            ]
        }
    ],
    "accessors" : [
        {
            "bufferView" : 0,
            "componentType" : 5126,
            "count" : 19267,
            "max" : [
                0.09778140485286713,
                0.011355993337929249,
                2.749951022451569e-07
            ],
            "min" : [
                0.022437842562794685,
                0,
                -0.12017897516489029
            ],
            "type" : "VEC3"
        },
        {
            "bufferView" : 1,
            "componentType" : 5126,
            "count" : 19267,
            "type" : "VEC3"
        },
        {
            "bufferView" : 2,
            "componentType" : 5126,
            "count" : 19267,
            "type" : "VEC2"
        },
        {
            "bufferView" : 3,
            "componentType" : 5123,
            "count" : 78624,
            "type" : "SCALAR"
        }
    ],
    "bufferViews" : [
        {
            "buffer" : 0,
            "byteLength" : 231204,
            "byteOffset" : 0
        },
        {
            "buffer" : 0,
            "byteLength" : 231204,
            "byteOffset" : 231204
        },
        {
            "buffer" : 0,
            "byteLength" : 154136,
            "byteOffset" : 462408
        },
        {
            "buffer" : 0,
            "byteLength" : 157248,
            "byteOffset" : 616544
        }
    ],
    "buffers" : [
        {
            "byteLength" : 773792,
            "uri" : "data:application/octet-stream;base64,"
        }
    ]
}
