{
  "accessors": [
    {
      "bufferView": 2,
      "componentType": 5126,
      "count": 504,
      "max": [
        1.1200000047683716,
        2.2324109077453613,
        1.3839160203933716
      ],
      "min": [
        -1.1200000047683716,
        0.021484000608325005,
        -1.3839160203933716
      ],
      "type": "VEC3"
    },
    {
      "bufferView": 2,
      "byteOffset": 6048,
      "componentType": 5126,
      "count": 504,
      "max": [
        1.0,
        1.0,
        0.9998972415924072
      ],
      "min": [
        -1.0,
        -1.0,
        -0.999939501285553
      ],
      "type": "VEC3"
    },
    {
      "bufferView": 3,
      "componentType": 5126,
      "count": 504,
      "max": [
        0.999996542930603,
        1.0,
        0.9970619082450867,
        1.0
      ],
      "min": [
        -1.0,
        -0.9999979734420776,
        -0.9994813203811646,
        1.0
      ],
      "type": "VEC4"
    },
    {
      "bufferView": 1,
      "componentType": 5126,
      "count": 504,
      "max": [
        0.9960610270500183,
        0.9821879863739014
      ],
      "min": [
        0.0039059999398887157,
        0.0039059999398887157
      ],
      "type": "VEC2"
    },
    {
      "bufferView": 0,
      "componentType": 5125,
      "count": 1146,
      "type": "SCALAR"
    },
    {
      "bufferView": 2,
      "byteOffset": 12096,
      "componentType": 5126,
      "count": 114,
      "max": [
        1.1799999475479126,
        0.2452400028705597,
        1.2363430261611938
      ],
      "min": [
        -1.1799999475479126,
        0.021484000608325005,
        -1.2363430261611938
      ],
      "type": "VEC3"
    },
    {
      "bufferView": 2,
      "byteOffset": 13464,
      "componentType": 5126,
      "count": 114,
      "max": [
        1.0,
        1.0,
        0.9979632496833801
      ],
      "min": [
        -1.0,
        -1.0,
        -0.9852139949798584
      ],
      "type": "VEC3"
    },
    {
      "bufferView": 3,
      "byteOffset": 8064,
      "componentType": 5126,
      "count": 114,
      "max": [
        0.9897573590278625,
        0.9631677269935608,
        0.9993270635604858,
        1.0
      ],
      "min": [
        -0.7071109414100647,
        -0.9999033212661743,
        -0.9784771203994751,
        1.0
      ],
      "type": "VEC4"
    },
    {
      "bufferView": 1,
      "byteOffset": 4032,
      "componentType": 5126,
      "count": 114,
      "max": [
        0.9302359819412231,
        0.4560239911079407
      ],
      "min": [
        0.13283200562000275,
        0.0039059999398887157
      ],
      "type": "VEC2"
    },
    {
      "bufferView": 0,
      "byteOffset": 4584,
      "componentType": 5125,
      "count": 204,
      "type": "SCALAR"
    },
    {
      "bufferView": 2,
      "byteOffset": 14832,
      "componentType": 5126,
      "count": 76,
      "max": [
        1.190490961074829,
        1.490548014640808,
        0.20888499915599823
      ],
      "min": [
        0.9920439720153809,
        0.7980149984359741,
        -0.20888499915599823
      ],
      "type": "VEC3"
    },
    {
      "bufferView": 2,
      "byteOffset": 15744,
      "componentType": 5126,
      "count": 76,
      "max": [
        0.9992603659629822,
        0.9991187453269958,
        0.9996377825737
      ],
      "min": [
        -0.5044669508934021,
        -1.0,
        -0.9996073842048645
      ],
      "type": "VEC3"
    },
    {
      "bufferView": 3,
      "byteOffset": 9888,
      "componentType": 5126,
      "count": 76,
      "max": [
        0.9999983310699463,
        0.29481467604637146,
        0.9996939897537231,
        1.0
      ],
      "min": [
        -0.011008094996213913,
        -0.5171716809272766,
        -0.5027912855148315,
        1.0
      ],
      "type": "VEC4"
    },
    {
      "bufferView": 1,
      "byteOffset": 4944,
      "componentType": 5126,
      "count": 76,
      "max": [
        0.9454699754714966,
        0.34649398922920227
      ],
      "min": [
        0.22848600149154663,
        0.0039059999398887157
      ],
      "type": "VEC2"
    },
    {
      "bufferView": 0,
      "byteOffset": 5400,
      "componentType": 5125,
      "count": 138,
      "type": "SCALAR"
    },
    {
      "bufferView": 2,
      "byteOffset": 16656,
      "componentType": 5126,
      "count": 116,
      "max": [
        1.0,
        2.105945110321045,
        1.2304869890213013
      ],
      "min": [
        -1.0,
        0.2412330061197281,
        -1.2304869890213013
      ],
      "type": "VEC3"
    },
    {
      "bufferView": 2,
      "byteOffset": 18048,
      "componentType": 5126,
      "count": 116,
      "max": [
        1.0,
        0.9991210103034973,
        0.9791197776794434
      ],
      "min": [
        -1.0,
        -0.2123321145772934,
        -0.9784513711929321
      ],
      "type": "VEC3"
    },
    {
      "bufferView": 3,
      "byteOffset": 11104,
      "componentType": 5126,
      "count": 116,
      "max": [
        0.797019898891449,
        0.999993622303009,
        0.9995691776275635,
        1.0
      ],
      "min": [
        -0.9999964237213135,
        -1.0,
        -0.9995672702789307,
        -1.0
      ],
      "type": "VEC4"
    },
    {
      "bufferView": 1,
      "byteOffset": 5552,
      "componentType": 5126,
      "count": 116,
      "max": [
        0.9403169751167297,
        0.9960939884185791
      ],
      "min": [
        0.0039059999398887157,
        0.0039059999398887157
      ],
      "type": "VEC2"
    },
    {
      "bufferView": 0,
      "byteOffset": 5952,
      "componentType": 5125,
      "count": 264,
      "type": "SCALAR"
    },
    {
      "bufferView": 2,
      "byteOffset": 19440,
      "componentType": 5126,
      "count": 160,
      "max": [
        1.28187096118927,
        2.4977030754089355,
        1.2438770532608032
      ],
      "min": [
        -1.2856980562210083,
        1.4137279987335205,
        -1.2438770532608032
      ],
      "type": "VEC3"
    },
    {
      "bufferView": 2,
      "byteOffset": 21360,
      "componentType": 5126,
      "count": 160,
      "max": [
        0.9517105221748352,
        0.8355178833007813,
        0.9791414737701416
      ],
      "min": [
        -0.9516786336898804,
        -0.9987769722938538,
        -0.9791414737701416
      ],
      "type": "VEC3"
    },
    {
      "bufferView": 3,
      "byteOffset": 12960,
      "componentType": 5126,
      "count": 160,
      "max": [
        0.6834449768066406,
        0.6959037780761719,
        0.9919462203979492,
        1.0
      ],
      "min": [
        -0.9957184791564941,
        -0.726345419883728,
        -0.9691687822341919,
        -1.0
      ],
      "type": "VEC4"
    },
    {
      "bufferView": 1,
      "byteOffset": 6480,
      "componentType": 5126,
      "count": 160,
      "max": [
        0.9953680038452148,
        0.41280698776245117
      ],
      "min": [
        0.17026199400424957,
        0.0039059999398887157
      ],
      "type": "VEC2"
    },
    {
      "bufferView": 0,
      "byteOffset": 7008,
      "componentType": 5125,
      "count": 180,
      "type": "SCALAR"
    }
  ],
  "asset": {
    "extras": {
      "author": "dmitry.porotnikov (https://sketchfab.com/dmitry.porotnikov)",
      "license": "CC-BY-4.0 (http://creativecommons.org/licenses/by/4.0/)",
      "source": "https://sketchfab.com/3d-models/low-poly-treasure-chest-b9bbd551360443ae920f189d241d4734",
      "title": "Low Poly Treasure Chest"
    },
    "generator": "Sketchfab-15.30.0",
    "version": "2.0"
  },
  "bufferViews": [
    {
      "buffer": 0,
      "byteLength": 7728,
      "name": "floatBufferViews",
      "target": 34963
    },
    {
      "buffer": 0,
      "byteLength": 7760,
      "byteOffset": 7728,
      "byteStride": 8,
      "name": "floatBufferViews",
      "target": 34962
    },
    {
      "buffer": 0,
      "byteLength": 23280,
      "byteOffset": 15488,
      "byteStride": 12,
      "name": "floatBufferViews",
      "target": 34962
    },
    {
      "buffer": 0,
      "byteLength": 15520,
      "byteOffset": 38768,
      "byteStride": 16,
      "name": "floatBufferViews",
      "target": 34962
    }
  ],
  "buffers": [
    {
      "byteLength": 54288,
      "uri": "scene.bin"
    }
  ],
  "images": [
    {
      "uri": "textures/spikes_baseColor.png"
    },
    {
      "uri": "textures/spikes_metallicRoughness.png"
    },
    {
      "uri": "textures/spikes_emissive.jpeg"
    },
    {
      "uri": "textures/spikes_normal.png"
    },
    {
      "uri": "textures/cage_baseColor.png"
    },
    {
      "uri": "textures/cage_metallicRoughness.png"
    },
    {
      "uri": "textures/cage_emissive.jpeg"
    },
    {
      "uri": "textures/cage_normal.png"
    },
    {
      "uri": "textures/Base_baseColor.png"
    },
    {
      "uri": "textures/Base_metallicRoughness.png"
    },
    {
      "uri": "textures/Base_emissive.jpeg"
    },
    {
      "uri": "textures/Base_normal.png"
    },
    {
      "uri": "textures/lock_baseColor.png"
    },
    {
      "uri": "textures/lock_metallicRoughness.png"
    },
    {
      "uri": "textures/lock_emissive.jpeg"
    },
    {
      "uri": "textures/lock_normal.png"
    },
    {
      "uri": "textures/Chest_baseColor.png"
    },
    {
      "uri": "textures/Chest_metallicRoughness.png"
    },
    {
      "uri": "textures/Chest_emissive.jpeg"
    },
    {
      "uri": "textures/Chest_normal.png"
    }
  ],
  "materials": [
    {
      "alphaMode": "BLEND",
      "doubleSided": true,
      "emissiveFactor": [
        1.0,
        1.0,
        1.0
      ],
      "emissiveTexture": {
        "index": 2
      },
      "name": "spikes",
      "normalTexture": {
        "index": 3
      },
      "pbrMetallicRoughness": {
        "baseColorTexture": {
          "index": 0
        },
        "metallicRoughnessTexture": {
          "index": 1
        }
      }
    },
    {
      "alphaMode": "BLEND",
      "doubleSided": true,
      "emissiveFactor": [
        1.0,
        1.0,
        1.0
      ],
      "emissiveTexture": {
        "index": 6
      },
      "name": "cage",
      "normalTexture": {
        "index": 7
      },
      "pbrMetallicRoughness": {
        "baseColorTexture": {
          "index": 4
        },
        "metallicRoughnessTexture": {
          "index": 5
        }
      }
    },
    {
      "alphaMode": "BLEND",
      "doubleSided": true,
      "emissiveFactor": [
        1.0,
        1.0,
        1.0
      ],
      "emissiveTexture": {
        "index": 10
      },
      "name": "Base",
      "normalTexture": {
        "index": 11
      },
      "pbrMetallicRoughness": {
        "baseColorTexture": {
          "index": 8
        },
        "metallicRoughnessTexture": {
          "index": 9
        }
      }
    },
    {
      "alphaMode": "BLEND",
      "doubleSided": true,
      "emissiveFactor": [
        1.0,
        1.0,
        1.0
      ],
      "emissiveTexture": {
        "index": 14
      },
      "name": "lock",
      "normalTexture": {
        "index": 15
      },
      "pbrMetallicRoughness": {
        "baseColorTexture": {
          "index": 12
        },
        "metallicRoughnessTexture": {
          "index": 13
        }
      }
    },
    {
      "alphaMode": "BLEND",
      "doubleSided": true,
      "emissiveFactor": [
        1.0,
        1.0,
        1.0
      ],
      "emissiveTexture": {
        "index": 18
      },
      "name": "Chest",
      "normalTexture": {
        "index": 19
      },
      "pbrMetallicRoughness": {
        "baseColorTexture": {
          "index": 16
        },
        "metallicRoughnessTexture": {
          "index": 17
        }
      }
    }
  ],
  "meshes": [
    {
      "name": "defaultMaterial",
      "primitives": [
        {
          "attributes": {
            "NORMAL": 1,
            "POSITION": 0,
            "TANGENT": 2,
            "TEXCOORD_0": 3
          },
          "indices": 4,
          "material": 1,
          "mode": 4
        }
      ]
    },
    {
      "name": "defaultMaterial",
      "primitives": [
        {
          "attributes": {
            "NORMAL": 6,
            "POSITION": 5,
            "TANGENT": 7,
            "TEXCOORD_0": 8
          },
          "indices": 9,
          "material": 2,
          "mode": 4
        }
      ]
    },
    {
      "name": "defaultMaterial",
      "primitives": [
        {
          "attributes": {
            "NORMAL": 11,
            "POSITION": 10,
            "TANGENT": 12,
            "TEXCOORD_0": 13
          },
          "indices": 14,
          "material": 3,
          "mode": 4
        }
      ]
    },
    {
      "name": "defaultMaterial",
      "primitives": [
        {
          "attributes": {
            "NORMAL": 16,
            "POSITION": 15,
            "TANGENT": 17,
            "TEXCOORD_0": 18
          },
          "indices": 19,
          "material": 4,
          "mode": 4
        }
      ]
    },
    {
      "name": "defaultMaterial",
      "primitives": [
        {
          "attributes": {
            "NORMAL": 21,
            "POSITION": 20,
            "TANGENT": 22,
            "TEXCOORD_0": 23
          },
          "indices": 24,
          "material": 0,
          "mode": 4
        }
      ]
    }
  ],
  "nodes": [
    {
      "children": [
        1
      ],
      "matrix": [
        1.0,
        0.0,
        0.0,
        0.0,
        0.0,
        2.220446049250313e-16,
        -1.0,
        0.0,
        0.0,
        1.0,
        2.220446049250313e-16,
        0.0,
        0.0,
        0.0,
        0.0,
        1.0
      ],
      "name": "Sketchfab_model"
    },
    {
      "children": [
        2,
        7
      ],
      "matrix": [
        1.0,
        0.0,
        0.0,
        0.0,
        0.0,
        -4.371139006309477e-08,
        0.999999999999999,
        0.0,
        0.0,
        -0.999999999999999,
        -4.371139006309477e-08,
        0.0,
        0.0,
        0.0,
        0.0,
        1.0
      ],
      "name": "Collada visual scene group"
    },
    {
      "children": [
        3,
        4,
        5,
        6
      ],
      "name": "polySurface1"
    },
    {
      "mesh": 0,
      "name": "defaultMaterial"
    },
    {
      "mesh": 1,
      "name": "defaultMaterial"
    },
    {
      "mesh": 2,
      "name": "defaultMaterial"
    },
    {
      "mesh": 3,
      "name": "defaultMaterial"
    },
    {
      "children": [
        8
      ],
      "name": "pCone7"
    },
    {
      "mesh": 4,
      "name": "defaultMaterial"
    }
  ],
  "samplers": [
    {
      "magFilter": 9729,
      "minFilter": 9987,
      "wrapS": 10497,
      "wrapT": 10497
    }
  ],
  "scene": 0,
  "scenes": [
    {
      "name": "Sketchfab_Scene",
      "nodes": [
        0
      ]
    }
  ],
  "textures": [
    {
      "sampler": 0,
      "source": 0
    },
    {
      "sampler": 0,
      "source": 1
    },
    {
      "sampler": 0,
      "source": 2
    },
    {
      "sampler": 0,
      "source": 3
    },
    {
      "sampler": 0,
      "source": 4
    },
    {
      "sampler": 0,
      "source": 5
    },
    {
      "sampler": 0,
      "source": 6
    },
    {
      "sampler": 0,
      "source": 7
    },
    {
      "sampler": 0,
      "source": 8
    },
    {
      "sampler": 0,
      "source": 9
    },
    {
      "sampler": 0,
      "source": 10
    },
    {
      "sampler": 0,
      "source": 11
    },
    {
      "sampler": 0,
      "source": 12
    },
    {
      "sampler": 0,
      "source": 13
    },
    {
      "sampler": 0,
      "source": 14
    },
    {
      "sampler": 0,
      "source": 15
    },
    {
      "sampler": 0,
      "source": 16
    },
    {
      "sampler": 0,
      "source": 17
    },
    {
      "sampler": 0,
      "source": 18
    },
    {
      "sampler": 0,
      "source": 19
    }
  ]
}
